<mxfile host="app.diagrams.net" modified="2023-06-06T14:14:15.381Z" agent="Mozilla/5.0 (Windows NT 10.0; Win64; x64) AppleWebKit/537.36 (KHTML, like Gecko) Chrome/110.0.0.0 YaBrowser/23.3.4.605 Yowser/2.5 Safari/537.36" etag="DbE9Q3mr5VNtj7tvlUTv" version="21.3.7" type="device" pages="2">
  <diagram name="Страница 1" id="oKPyhW_BDmH7gDJ8zdxR">
    <mxGraphModel dx="1002" dy="545" grid="1" gridSize="10" guides="1" tooltips="1" connect="1" arrows="1" fold="1" page="1" pageScale="1" pageWidth="827" pageHeight="1169" math="0" shadow="0">
      <root>
        <mxCell id="0" />
        <mxCell id="1" parent="0" />
        <mxCell id="4ab5WH4WgTMAdfrBrQQG-3" value="" style="group" parent="1" vertex="1" connectable="0">
          <mxGeometry x="167" y="280" width="50" height="70" as="geometry" />
        </mxCell>
        <mxCell id="4ab5WH4WgTMAdfrBrQQG-1" value="PC" style="rounded=0;whiteSpace=wrap;html=1;" parent="4ab5WH4WgTMAdfrBrQQG-3" vertex="1">
          <mxGeometry width="40" height="50" as="geometry" />
        </mxCell>
        <mxCell id="4ab5WH4WgTMAdfrBrQQG-2" value="" style="triangle;whiteSpace=wrap;html=1;direction=south;" parent="4ab5WH4WgTMAdfrBrQQG-3" vertex="1">
          <mxGeometry width="40" height="20" as="geometry" />
        </mxCell>
        <mxCell id="4ab5WH4WgTMAdfrBrQQG-4" value="&amp;gt;&amp;gt; 2" style="rounded=0;whiteSpace=wrap;html=1;" parent="1" vertex="1">
          <mxGeometry x="227" y="290" width="40" height="30" as="geometry" />
        </mxCell>
        <mxCell id="4ab5WH4WgTMAdfrBrQQG-7" value="" style="endArrow=none;html=1;rounded=0;exitX=0;exitY=0.25;exitDx=0;exitDy=0;entryX=1;entryY=0.5;entryDx=0;entryDy=0;" parent="1" source="4ab5WH4WgTMAdfrBrQQG-5" target="4ab5WH4WgTMAdfrBrQQG-4" edge="1">
          <mxGeometry width="50" height="50" relative="1" as="geometry">
            <mxPoint x="457" y="400" as="sourcePoint" />
            <mxPoint x="387" y="400" as="targetPoint" />
          </mxGeometry>
        </mxCell>
        <mxCell id="4ab5WH4WgTMAdfrBrQQG-9" value="" style="group" parent="1" vertex="1" connectable="0">
          <mxGeometry x="267" y="270" width="120" height="140" as="geometry" />
        </mxCell>
        <mxCell id="4ab5WH4WgTMAdfrBrQQG-5" value="Inst&lt;br&gt;Memory" style="rounded=0;whiteSpace=wrap;html=1;" parent="4ab5WH4WgTMAdfrBrQQG-9" vertex="1">
          <mxGeometry x="9.230769230769232" width="110.76923076923077" height="140" as="geometry" />
        </mxCell>
        <mxCell id="4ab5WH4WgTMAdfrBrQQG-6" value="A" style="text;html=1;strokeColor=none;fillColor=none;align=center;verticalAlign=middle;whiteSpace=wrap;rounded=0;" parent="4ab5WH4WgTMAdfrBrQQG-9" vertex="1">
          <mxGeometry y="26.25" width="36.92307692307693" height="17.5" as="geometry" />
        </mxCell>
        <mxCell id="4ab5WH4WgTMAdfrBrQQG-8" value="RD" style="text;html=1;strokeColor=none;fillColor=none;align=center;verticalAlign=middle;whiteSpace=wrap;rounded=0;" parent="4ab5WH4WgTMAdfrBrQQG-9" vertex="1">
          <mxGeometry x="83.07692307692308" y="26.25" width="36.92307692307693" height="17.5" as="geometry" />
        </mxCell>
        <mxCell id="4ab5WH4WgTMAdfrBrQQG-21" value="" style="group" parent="1" vertex="1" connectable="0">
          <mxGeometry x="507" y="270" width="140" height="140" as="geometry" />
        </mxCell>
        <mxCell id="4ab5WH4WgTMAdfrBrQQG-11" value="Reg File" style="whiteSpace=wrap;html=1;aspect=fixed;" parent="4ab5WH4WgTMAdfrBrQQG-21" vertex="1">
          <mxGeometry width="140" height="140" as="geometry" />
        </mxCell>
        <mxCell id="4ab5WH4WgTMAdfrBrQQG-12" value="A1" style="text;html=1;strokeColor=none;fillColor=none;align=center;verticalAlign=middle;whiteSpace=wrap;rounded=0;" parent="4ab5WH4WgTMAdfrBrQQG-21" vertex="1">
          <mxGeometry y="20" width="40" height="30" as="geometry" />
        </mxCell>
        <mxCell id="4ab5WH4WgTMAdfrBrQQG-16" value="A2" style="text;html=1;strokeColor=none;fillColor=none;align=center;verticalAlign=middle;whiteSpace=wrap;rounded=0;" parent="4ab5WH4WgTMAdfrBrQQG-21" vertex="1">
          <mxGeometry y="55" width="40" height="30" as="geometry" />
        </mxCell>
        <mxCell id="4ab5WH4WgTMAdfrBrQQG-17" value="A3" style="text;html=1;strokeColor=none;fillColor=none;align=center;verticalAlign=middle;whiteSpace=wrap;rounded=0;" parent="4ab5WH4WgTMAdfrBrQQG-21" vertex="1">
          <mxGeometry y="85" width="40" height="30" as="geometry" />
        </mxCell>
        <mxCell id="4ab5WH4WgTMAdfrBrQQG-18" value="WD3" style="text;html=1;strokeColor=none;fillColor=none;align=center;verticalAlign=middle;whiteSpace=wrap;rounded=0;" parent="4ab5WH4WgTMAdfrBrQQG-21" vertex="1">
          <mxGeometry y="110" width="40" height="30" as="geometry" />
        </mxCell>
        <mxCell id="4ab5WH4WgTMAdfrBrQQG-19" value="RD1" style="text;html=1;strokeColor=none;fillColor=none;align=center;verticalAlign=middle;whiteSpace=wrap;rounded=0;" parent="4ab5WH4WgTMAdfrBrQQG-21" vertex="1">
          <mxGeometry x="100" y="20" width="40" height="30" as="geometry" />
        </mxCell>
        <mxCell id="4ab5WH4WgTMAdfrBrQQG-20" value="RD2" style="text;html=1;strokeColor=none;fillColor=none;align=center;verticalAlign=middle;whiteSpace=wrap;rounded=0;" parent="4ab5WH4WgTMAdfrBrQQG-21" vertex="1">
          <mxGeometry x="100" y="55" width="40" height="30" as="geometry" />
        </mxCell>
        <mxCell id="4ab5WH4WgTMAdfrBrQQG-22" value="1&lt;br&gt;0" style="shape=trapezoid;perimeter=trapezoidPerimeter;whiteSpace=wrap;html=1;fixedSize=1;direction=south;" parent="1" vertex="1">
          <mxGeometry x="457" y="390" width="20" height="60" as="geometry" />
        </mxCell>
        <mxCell id="4ab5WH4WgTMAdfrBrQQG-23" value="" style="endArrow=none;html=1;rounded=0;entryX=1;entryY=0.5;entryDx=0;entryDy=0;" parent="1" target="4ab5WH4WgTMAdfrBrQQG-8" edge="1">
          <mxGeometry width="50" height="50" relative="1" as="geometry">
            <mxPoint x="397" y="305" as="sourcePoint" />
            <mxPoint x="507" y="350" as="targetPoint" />
          </mxGeometry>
        </mxCell>
        <mxCell id="4ab5WH4WgTMAdfrBrQQG-24" value="" style="endArrow=none;html=1;rounded=0;" parent="1" edge="1">
          <mxGeometry width="50" height="50" relative="1" as="geometry">
            <mxPoint x="397" y="510" as="sourcePoint" />
            <mxPoint x="397" y="270" as="targetPoint" />
          </mxGeometry>
        </mxCell>
        <mxCell id="4ab5WH4WgTMAdfrBrQQG-25" value="" style="endArrow=none;html=1;rounded=0;endFill=0;" parent="1" edge="1">
          <mxGeometry relative="1" as="geometry">
            <mxPoint x="397" y="305" as="sourcePoint" />
            <mxPoint x="507" y="304.5" as="targetPoint" />
          </mxGeometry>
        </mxCell>
        <mxCell id="4ab5WH4WgTMAdfrBrQQG-26" value="r1" style="edgeLabel;resizable=0;html=1;align=center;verticalAlign=middle;" parent="4ab5WH4WgTMAdfrBrQQG-25" connectable="0" vertex="1">
          <mxGeometry relative="1" as="geometry" />
        </mxCell>
        <mxCell id="4ab5WH4WgTMAdfrBrQQG-27" value="" style="endArrow=none;html=1;rounded=0;endFill=0;" parent="1" edge="1">
          <mxGeometry relative="1" as="geometry">
            <mxPoint x="397" y="340.5" as="sourcePoint" />
            <mxPoint x="507" y="340" as="targetPoint" />
          </mxGeometry>
        </mxCell>
        <mxCell id="4ab5WH4WgTMAdfrBrQQG-28" value="r2" style="edgeLabel;resizable=0;html=1;align=center;verticalAlign=middle;" parent="4ab5WH4WgTMAdfrBrQQG-27" connectable="0" vertex="1">
          <mxGeometry relative="1" as="geometry" />
        </mxCell>
        <mxCell id="4ab5WH4WgTMAdfrBrQQG-29" value="" style="endArrow=none;html=1;rounded=0;endFill=0;" parent="1" edge="1">
          <mxGeometry relative="1" as="geometry">
            <mxPoint x="397" y="370.5" as="sourcePoint" />
            <mxPoint x="507" y="370" as="targetPoint" />
          </mxGeometry>
        </mxCell>
        <mxCell id="4ab5WH4WgTMAdfrBrQQG-30" value="rd" style="edgeLabel;resizable=0;html=1;align=center;verticalAlign=middle;" parent="4ab5WH4WgTMAdfrBrQQG-29" connectable="0" vertex="1">
          <mxGeometry relative="1" as="geometry" />
        </mxCell>
        <mxCell id="4ab5WH4WgTMAdfrBrQQG-32" value="" style="endArrow=none;html=1;rounded=0;endFill=0;entryX=0.25;entryY=1;entryDx=0;entryDy=0;" parent="1" target="4ab5WH4WgTMAdfrBrQQG-22" edge="1">
          <mxGeometry relative="1" as="geometry">
            <mxPoint x="397" y="405" as="sourcePoint" />
            <mxPoint x="517" y="380" as="targetPoint" />
          </mxGeometry>
        </mxCell>
        <mxCell id="4ab5WH4WgTMAdfrBrQQG-33" value="ImmU" style="edgeLabel;resizable=0;html=1;align=center;verticalAlign=middle;" parent="4ab5WH4WgTMAdfrBrQQG-32" connectable="0" vertex="1">
          <mxGeometry relative="1" as="geometry" />
        </mxCell>
        <mxCell id="4ab5WH4WgTMAdfrBrQQG-34" value="" style="endArrow=none;html=1;rounded=0;endFill=0;entryX=0.75;entryY=1;entryDx=0;entryDy=0;" parent="1" target="4ab5WH4WgTMAdfrBrQQG-41" edge="1">
          <mxGeometry relative="1" as="geometry">
            <mxPoint x="397" y="480" as="sourcePoint" />
            <mxPoint x="627" y="440" as="targetPoint" />
            <Array as="points">
              <mxPoint x="657" y="480" />
              <mxPoint x="657" y="405" />
            </Array>
          </mxGeometry>
        </mxCell>
        <mxCell id="4ab5WH4WgTMAdfrBrQQG-35" value="ImmL" style="edgeLabel;resizable=0;html=1;align=center;verticalAlign=middle;" parent="4ab5WH4WgTMAdfrBrQQG-34" connectable="0" vertex="1">
          <mxGeometry relative="1" as="geometry" />
        </mxCell>
        <mxCell id="4ab5WH4WgTMAdfrBrQQG-36" value="" style="endArrow=none;html=1;rounded=0;endFill=0;entryX=0.25;entryY=1;entryDx=0;entryDy=0;" parent="1" edge="1">
          <mxGeometry relative="1" as="geometry">
            <mxPoint x="397" y="510" as="sourcePoint" />
            <mxPoint x="447" y="510" as="targetPoint" />
          </mxGeometry>
        </mxCell>
        <mxCell id="4ab5WH4WgTMAdfrBrQQG-37" value="ImmB" style="edgeLabel;resizable=0;html=1;align=center;verticalAlign=middle;" parent="4ab5WH4WgTMAdfrBrQQG-36" connectable="0" vertex="1">
          <mxGeometry relative="1" as="geometry" />
        </mxCell>
        <mxCell id="4ab5WH4WgTMAdfrBrQQG-40" value="" style="group" parent="1" vertex="1" connectable="0">
          <mxGeometry x="417" y="490" width="100" height="100" as="geometry" />
        </mxCell>
        <mxCell id="4ab5WH4WgTMAdfrBrQQG-38" value="" style="verticalLabelPosition=bottom;verticalAlign=top;html=1;shape=mxgraph.basic.polygon;polyCoords=[[0.3,0.05],[0.6,0.25],[0.6,0.25],[0.6,0.65],[0.3,0.85],[0.3,0.55],[0.4,0.45],[0.3,0.35]];polyline=0;" parent="4ab5WH4WgTMAdfrBrQQG-40" vertex="1">
          <mxGeometry width="100" height="100" as="geometry" />
        </mxCell>
        <mxCell id="4ab5WH4WgTMAdfrBrQQG-39" value="+" style="text;html=1;strokeColor=none;fillColor=none;align=center;verticalAlign=middle;whiteSpace=wrap;rounded=0;" parent="4ab5WH4WgTMAdfrBrQQG-40" vertex="1">
          <mxGeometry x="45" y="45" width="10" height="10" as="geometry" />
        </mxCell>
        <mxCell id="4ab5WH4WgTMAdfrBrQQG-41" value="0&lt;br&gt;1" style="shape=trapezoid;perimeter=trapezoidPerimeter;whiteSpace=wrap;html=1;fixedSize=1;direction=south;" parent="1" vertex="1">
          <mxGeometry x="677" y="360" width="20" height="60" as="geometry" />
        </mxCell>
        <mxCell id="4ab5WH4WgTMAdfrBrQQG-42" value="" style="group" parent="1" vertex="1" connectable="0">
          <mxGeometry x="727" y="285" width="100" height="100" as="geometry" />
        </mxCell>
        <mxCell id="4ab5WH4WgTMAdfrBrQQG-43" value="" style="verticalLabelPosition=bottom;verticalAlign=top;html=1;shape=mxgraph.basic.polygon;polyCoords=[[0.3,0.05],[0.6,0.25],[0.6,0.25],[0.6,0.65],[0.3,0.85],[0.3,0.55],[0.4,0.45],[0.3,0.35]];polyline=0;fontSize=9;" parent="4ab5WH4WgTMAdfrBrQQG-42" vertex="1">
          <mxGeometry width="100" height="100" as="geometry" />
        </mxCell>
        <mxCell id="4ab5WH4WgTMAdfrBrQQG-44" value="&lt;font style=&quot;font-size: 10px;&quot;&gt;ALU&lt;/font&gt;" style="text;html=1;strokeColor=none;fillColor=none;align=center;verticalAlign=middle;whiteSpace=wrap;rounded=0;fontSize=10;" parent="4ab5WH4WgTMAdfrBrQQG-42" vertex="1">
          <mxGeometry x="40" y="60" width="10" height="10" as="geometry" />
        </mxCell>
        <mxCell id="4ab5WH4WgTMAdfrBrQQG-46" value="" style="endArrow=none;html=1;rounded=0;entryX=1;entryY=0.5;entryDx=0;entryDy=0;exitX=0.294;exitY=0.194;exitDx=0;exitDy=0;exitPerimeter=0;" parent="1" source="4ab5WH4WgTMAdfrBrQQG-43" target="4ab5WH4WgTMAdfrBrQQG-19" edge="1">
          <mxGeometry width="50" height="50" relative="1" as="geometry">
            <mxPoint x="647" y="360" as="sourcePoint" />
            <mxPoint x="697" y="310" as="targetPoint" />
          </mxGeometry>
        </mxCell>
        <mxCell id="4ab5WH4WgTMAdfrBrQQG-47" value="" style="endArrow=none;html=1;rounded=0;exitX=1;exitY=0.5;exitDx=0;exitDy=0;entryX=0.25;entryY=1;entryDx=0;entryDy=0;" parent="1" source="4ab5WH4WgTMAdfrBrQQG-20" target="4ab5WH4WgTMAdfrBrQQG-41" edge="1">
          <mxGeometry width="50" height="50" relative="1" as="geometry">
            <mxPoint x="647" y="360" as="sourcePoint" />
            <mxPoint x="697" y="310" as="targetPoint" />
            <Array as="points">
              <mxPoint x="667" y="340" />
              <mxPoint x="667" y="375" />
            </Array>
          </mxGeometry>
        </mxCell>
        <mxCell id="4ab5WH4WgTMAdfrBrQQG-48" value="" style="endArrow=none;html=1;rounded=0;entryX=0.309;entryY=0.71;entryDx=0;entryDy=0;entryPerimeter=0;exitX=0.5;exitY=0;exitDx=0;exitDy=0;" parent="1" source="4ab5WH4WgTMAdfrBrQQG-41" target="4ab5WH4WgTMAdfrBrQQG-43" edge="1">
          <mxGeometry width="50" height="50" relative="1" as="geometry">
            <mxPoint x="647" y="360" as="sourcePoint" />
            <mxPoint x="697" y="310" as="targetPoint" />
            <Array as="points">
              <mxPoint x="717" y="390" />
              <mxPoint x="717" y="356" />
            </Array>
          </mxGeometry>
        </mxCell>
        <mxCell id="4ab5WH4WgTMAdfrBrQQG-49" value="" style="endArrow=none;html=1;rounded=0;entryX=0.5;entryY=0;entryDx=0;entryDy=0;exitX=0;exitY=0.5;exitDx=0;exitDy=0;" parent="1" source="4ab5WH4WgTMAdfrBrQQG-18" target="4ab5WH4WgTMAdfrBrQQG-22" edge="1">
          <mxGeometry width="50" height="50" relative="1" as="geometry">
            <mxPoint x="567" y="430" as="sourcePoint" />
            <mxPoint x="617" y="380" as="targetPoint" />
            <Array as="points">
              <mxPoint x="487" y="395" />
              <mxPoint x="487" y="420" />
            </Array>
          </mxGeometry>
        </mxCell>
        <mxCell id="4ab5WH4WgTMAdfrBrQQG-50" value="" style="endArrow=none;html=1;rounded=0;entryX=0.75;entryY=1;entryDx=0;entryDy=0;exitX=0.609;exitY=0.559;exitDx=0;exitDy=0;exitPerimeter=0;" parent="1" source="4ab5WH4WgTMAdfrBrQQG-43" target="4ab5WH4WgTMAdfrBrQQG-22" edge="1">
          <mxGeometry width="50" height="50" relative="1" as="geometry">
            <mxPoint x="797" y="460" as="sourcePoint" />
            <mxPoint x="617" y="380" as="targetPoint" />
            <Array as="points">
              <mxPoint x="797" y="341" />
              <mxPoint x="797" y="460" />
              <mxPoint x="427" y="460" />
              <mxPoint x="427" y="435" />
            </Array>
          </mxGeometry>
        </mxCell>
        <mxCell id="4ab5WH4WgTMAdfrBrQQG-51" value="" style="endArrow=none;html=1;rounded=0;endFill=0;exitX=0.601;exitY=0.336;exitDx=0;exitDy=0;exitPerimeter=0;entryX=0.829;entryY=0.828;entryDx=0;entryDy=0;entryPerimeter=0;" parent="1" source="4ab5WH4WgTMAdfrBrQQG-43" target="4ab5WH4WgTMAdfrBrQQG-89" edge="1">
          <mxGeometry relative="1" as="geometry">
            <mxPoint x="632" y="240.5" as="sourcePoint" />
            <mxPoint x="797" y="230" as="targetPoint" />
            <Array as="points">
              <mxPoint x="797" y="319" />
              <mxPoint x="797" y="210" />
              <mxPoint x="480" y="210" />
              <mxPoint x="480" y="183" />
            </Array>
          </mxGeometry>
        </mxCell>
        <mxCell id="4ab5WH4WgTMAdfrBrQQG-52" value="aluZero" style="edgeLabel;resizable=0;html=1;align=center;verticalAlign=middle;" parent="4ab5WH4WgTMAdfrBrQQG-51" connectable="0" vertex="1">
          <mxGeometry relative="1" as="geometry" />
        </mxCell>
        <mxCell id="4ab5WH4WgTMAdfrBrQQG-53" value="" style="endArrow=none;html=1;rounded=0;entryX=0;entryY=0.5;entryDx=0;entryDy=0;exitX=1;exitY=0.5;exitDx=0;exitDy=0;" parent="1" source="4ab5WH4WgTMAdfrBrQQG-1" target="4ab5WH4WgTMAdfrBrQQG-4" edge="1">
          <mxGeometry width="50" height="50" relative="1" as="geometry">
            <mxPoint x="167" y="400" as="sourcePoint" />
            <mxPoint x="217" y="350" as="targetPoint" />
          </mxGeometry>
        </mxCell>
        <mxCell id="4ab5WH4WgTMAdfrBrQQG-54" value="0&lt;br&gt;1" style="shape=trapezoid;perimeter=trapezoidPerimeter;whiteSpace=wrap;html=1;fixedSize=1;direction=south;fillColor=#008a00;fontColor=#ffffff;strokeColor=#005700;" parent="1" vertex="1">
          <mxGeometry x="97" y="275" width="20" height="60" as="geometry" />
        </mxCell>
        <mxCell id="4ab5WH4WgTMAdfrBrQQG-57" value="1&lt;br&gt;0" style="shape=trapezoid;perimeter=trapezoidPerimeter;whiteSpace=wrap;html=1;fixedSize=1;direction=south;" parent="1" vertex="1">
          <mxGeometry x="27" y="260" width="20" height="60" as="geometry" />
        </mxCell>
        <mxCell id="4ab5WH4WgTMAdfrBrQQG-59" value="" style="endArrow=none;html=1;rounded=0;endFill=0;exitX=0.75;exitY=1;exitDx=0;exitDy=0;fillColor=#008a00;strokeColor=#005700;" parent="1" source="4ab5WH4WgTMAdfrBrQQG-54" edge="1">
          <mxGeometry relative="1" as="geometry">
            <mxPoint x="67" y="409.96" as="sourcePoint" />
            <mxPoint x="217" y="305" as="targetPoint" />
            <Array as="points">
              <mxPoint x="77" y="320" />
              <mxPoint x="77" y="350" />
              <mxPoint x="217" y="350" />
            </Array>
          </mxGeometry>
        </mxCell>
        <mxCell id="4ab5WH4WgTMAdfrBrQQG-60" value="&lt;font color=&quot;#2d7600&quot;&gt;pc&lt;/font&gt;" style="edgeLabel;resizable=0;html=1;align=center;verticalAlign=middle;" parent="4ab5WH4WgTMAdfrBrQQG-59" connectable="0" vertex="1">
          <mxGeometry relative="1" as="geometry">
            <mxPoint x="40" as="offset" />
          </mxGeometry>
        </mxCell>
        <mxCell id="4ab5WH4WgTMAdfrBrQQG-62" value="" style="endArrow=none;html=1;rounded=0;endFill=0;exitX=0.5;exitY=0;exitDx=0;exitDy=0;entryX=0.25;entryY=1;entryDx=0;entryDy=0;fillColor=#008a00;strokeColor=#005700;" parent="1" source="4ab5WH4WgTMAdfrBrQQG-57" target="4ab5WH4WgTMAdfrBrQQG-54" edge="1">
          <mxGeometry relative="1" as="geometry">
            <mxPoint x="7" y="390.5" as="sourcePoint" />
            <mxPoint x="117" y="390" as="targetPoint" />
          </mxGeometry>
        </mxCell>
        <mxCell id="4ab5WH4WgTMAdfrBrQQG-63" value="&lt;font color=&quot;#2d7600&quot;&gt;pcNext1&lt;/font&gt;" style="edgeLabel;resizable=0;html=1;align=center;verticalAlign=middle;" parent="4ab5WH4WgTMAdfrBrQQG-62" connectable="0" vertex="1">
          <mxGeometry relative="1" as="geometry" />
        </mxCell>
        <mxCell id="4ab5WH4WgTMAdfrBrQQG-64" value="" style="endArrow=none;html=1;rounded=0;endFill=0;entryX=0;entryY=0.5;entryDx=0;entryDy=0;exitX=0.5;exitY=0;exitDx=0;exitDy=0;fillColor=#008a00;strokeColor=#005700;" parent="1" source="4ab5WH4WgTMAdfrBrQQG-54" target="4ab5WH4WgTMAdfrBrQQG-1" edge="1">
          <mxGeometry relative="1" as="geometry">
            <mxPoint x="17" y="400.5" as="sourcePoint" />
            <mxPoint x="127" y="400" as="targetPoint" />
          </mxGeometry>
        </mxCell>
        <mxCell id="4ab5WH4WgTMAdfrBrQQG-65" value="&lt;font color=&quot;#2d7600&quot;&gt;pcNext2&lt;/font&gt;" style="edgeLabel;resizable=0;html=1;align=center;verticalAlign=middle;" parent="4ab5WH4WgTMAdfrBrQQG-64" connectable="0" vertex="1">
          <mxGeometry relative="1" as="geometry" />
        </mxCell>
        <mxCell id="4ab5WH4WgTMAdfrBrQQG-67" value="" style="endArrow=none;html=1;rounded=0;endFill=0;exitX=0;exitY=0.5;exitDx=0;exitDy=0;entryX=1;entryY=0.5;entryDx=0;entryDy=0;entryPerimeter=0;" parent="1" source="4ab5WH4WgTMAdfrBrQQG-57" target="4ab5WH4WgTMAdfrBrQQG-84" edge="1">
          <mxGeometry relative="1" as="geometry">
            <mxPoint x="47" y="300" as="sourcePoint" />
            <mxPoint x="640" y="140" as="targetPoint" />
            <Array as="points">
              <mxPoint x="37" y="240" />
              <mxPoint x="37" y="120" />
              <mxPoint x="640" y="120" />
              <mxPoint x="640" y="145" />
            </Array>
          </mxGeometry>
        </mxCell>
        <mxCell id="4ab5WH4WgTMAdfrBrQQG-68" value="pcSrc" style="edgeLabel;resizable=0;html=1;align=center;verticalAlign=middle;" parent="4ab5WH4WgTMAdfrBrQQG-67" connectable="0" vertex="1">
          <mxGeometry relative="1" as="geometry" />
        </mxCell>
        <mxCell id="4ab5WH4WgTMAdfrBrQQG-69" value="" style="endArrow=none;html=1;rounded=0;endFill=0;exitX=0.75;exitY=1;exitDx=0;exitDy=0;entryX=0.583;entryY=0.435;entryDx=0;entryDy=0;entryPerimeter=0;" parent="1" source="4ab5WH4WgTMAdfrBrQQG-57" target="4ab5WH4WgTMAdfrBrQQG-74" edge="1">
          <mxGeometry relative="1" as="geometry">
            <mxPoint x="57" y="310" as="sourcePoint" />
            <mxPoint x="137" y="530" as="targetPoint" />
            <Array as="points">
              <mxPoint x="17" y="305" />
              <mxPoint x="17" y="390" />
              <mxPoint x="87" y="390" />
              <mxPoint x="87" y="470" />
              <mxPoint x="217" y="470" />
              <mxPoint x="217" y="414" />
            </Array>
          </mxGeometry>
        </mxCell>
        <mxCell id="4ab5WH4WgTMAdfrBrQQG-70" value="pcPlus4" style="edgeLabel;resizable=0;html=1;align=center;verticalAlign=middle;" parent="4ab5WH4WgTMAdfrBrQQG-69" connectable="0" vertex="1">
          <mxGeometry relative="1" as="geometry">
            <mxPoint x="-27" y="-61" as="offset" />
          </mxGeometry>
        </mxCell>
        <mxCell id="4ab5WH4WgTMAdfrBrQQG-71" value="" style="endArrow=none;html=1;rounded=0;endFill=0;exitX=0.25;exitY=1;exitDx=0;exitDy=0;entryX=0.613;entryY=0.437;entryDx=0;entryDy=0;entryPerimeter=0;" parent="1" source="4ab5WH4WgTMAdfrBrQQG-57" target="4ab5WH4WgTMAdfrBrQQG-38" edge="1">
          <mxGeometry relative="1" as="geometry">
            <mxPoint x="37" y="315" as="sourcePoint" />
            <mxPoint x="217" y="550" as="targetPoint" />
            <Array as="points">
              <mxPoint x="7" y="275" />
              <mxPoint x="7" y="400" />
              <mxPoint x="7" y="430" />
              <mxPoint x="60" y="430" />
              <mxPoint x="60" y="590" />
              <mxPoint x="507" y="590" />
              <mxPoint x="507" y="534" />
            </Array>
          </mxGeometry>
        </mxCell>
        <mxCell id="4ab5WH4WgTMAdfrBrQQG-72" value="pcBranch" style="edgeLabel;resizable=0;html=1;align=center;verticalAlign=middle;" parent="4ab5WH4WgTMAdfrBrQQG-71" connectable="0" vertex="1">
          <mxGeometry relative="1" as="geometry">
            <mxPoint x="-105" y="-160" as="offset" />
          </mxGeometry>
        </mxCell>
        <mxCell id="4ab5WH4WgTMAdfrBrQQG-73" value="" style="group" parent="1" vertex="1" connectable="0">
          <mxGeometry x="137" y="370" width="100" height="100" as="geometry" />
        </mxCell>
        <mxCell id="4ab5WH4WgTMAdfrBrQQG-74" value="" style="verticalLabelPosition=bottom;verticalAlign=top;html=1;shape=mxgraph.basic.polygon;polyCoords=[[0.3,0.05],[0.6,0.25],[0.6,0.25],[0.6,0.65],[0.3,0.85],[0.3,0.55],[0.4,0.45],[0.3,0.35]];polyline=0;" parent="4ab5WH4WgTMAdfrBrQQG-73" vertex="1">
          <mxGeometry width="100" height="100" as="geometry" />
        </mxCell>
        <mxCell id="4ab5WH4WgTMAdfrBrQQG-75" value="+" style="text;html=1;strokeColor=none;fillColor=none;align=center;verticalAlign=middle;whiteSpace=wrap;rounded=0;" parent="4ab5WH4WgTMAdfrBrQQG-73" vertex="1">
          <mxGeometry x="45" y="45" width="10" height="10" as="geometry" />
        </mxCell>
        <mxCell id="4ab5WH4WgTMAdfrBrQQG-76" value="" style="endArrow=none;html=1;rounded=0;exitX=0.307;exitY=0.207;exitDx=0;exitDy=0;exitPerimeter=0;" parent="1" source="4ab5WH4WgTMAdfrBrQQG-74" edge="1">
          <mxGeometry width="50" height="50" relative="1" as="geometry">
            <mxPoint x="197" y="450" as="sourcePoint" />
            <mxPoint x="127" y="350" as="targetPoint" />
            <Array as="points">
              <mxPoint x="127" y="390" />
            </Array>
          </mxGeometry>
        </mxCell>
        <mxCell id="4ab5WH4WgTMAdfrBrQQG-77" value="" style="endArrow=none;html=1;rounded=0;exitX=0.298;exitY=0.694;exitDx=0;exitDy=0;exitPerimeter=0;" parent="1" source="4ab5WH4WgTMAdfrBrQQG-38" edge="1">
          <mxGeometry width="50" height="50" relative="1" as="geometry">
            <mxPoint x="217" y="500" as="sourcePoint" />
            <mxPoint x="217" y="350" as="targetPoint" />
            <Array as="points">
              <mxPoint x="337" y="560" />
              <mxPoint x="337" y="420" />
              <mxPoint x="247" y="420" />
              <mxPoint x="247" y="350" />
            </Array>
          </mxGeometry>
        </mxCell>
        <mxCell id="4ab5WH4WgTMAdfrBrQQG-79" value="" style="endArrow=none;html=1;rounded=0;endFill=0;exitX=0;exitY=0.25;exitDx=0;exitDy=0;" parent="1" source="4ab5WH4WgTMAdfrBrQQG-22" edge="1">
          <mxGeometry relative="1" as="geometry">
            <mxPoint x="192" y="240" as="sourcePoint" />
            <mxPoint x="470" y="250" as="targetPoint" />
          </mxGeometry>
        </mxCell>
        <mxCell id="4ab5WH4WgTMAdfrBrQQG-80" value="wdSrc" style="edgeLabel;resizable=0;html=1;align=center;verticalAlign=middle;" parent="4ab5WH4WgTMAdfrBrQQG-79" connectable="0" vertex="1">
          <mxGeometry relative="1" as="geometry" />
        </mxCell>
        <mxCell id="4ab5WH4WgTMAdfrBrQQG-82" value="" style="endArrow=none;html=1;rounded=0;endFill=0;exitX=0;exitY=0.5;exitDx=0;exitDy=0;" parent="1" source="4ab5WH4WgTMAdfrBrQQG-41" edge="1">
          <mxGeometry relative="1" as="geometry">
            <mxPoint x="697" y="360" as="sourcePoint" />
            <mxPoint x="687" y="250" as="targetPoint" />
          </mxGeometry>
        </mxCell>
        <mxCell id="4ab5WH4WgTMAdfrBrQQG-83" value="aluSrc" style="edgeLabel;resizable=0;html=1;align=center;verticalAlign=middle;" parent="4ab5WH4WgTMAdfrBrQQG-82" connectable="0" vertex="1">
          <mxGeometry relative="1" as="geometry">
            <mxPoint y="-20" as="offset" />
          </mxGeometry>
        </mxCell>
        <mxCell id="4ab5WH4WgTMAdfrBrQQG-84" value="AND" style="shape=or;whiteSpace=wrap;html=1;" parent="1" vertex="1">
          <mxGeometry x="580" y="130" width="40" height="30" as="geometry" />
        </mxCell>
        <mxCell id="4ab5WH4WgTMAdfrBrQQG-87" value="" style="endArrow=none;html=1;rounded=0;entryX=1;entryY=0.5;entryDx=0;entryDy=0;exitX=0;exitY=0.829;exitDx=0;exitDy=0;exitPerimeter=0;" parent="1" source="4ab5WH4WgTMAdfrBrQQG-84" target="4ab5WH4WgTMAdfrBrQQG-86" edge="1">
          <mxGeometry width="50" height="50" relative="1" as="geometry">
            <mxPoint x="490" y="220" as="sourcePoint" />
            <mxPoint x="540" y="170" as="targetPoint" />
            <Array as="points">
              <mxPoint x="570" y="155" />
              <mxPoint x="570" y="175" />
            </Array>
          </mxGeometry>
        </mxCell>
        <mxCell id="4ab5WH4WgTMAdfrBrQQG-90" value="" style="endArrow=none;html=1;rounded=0;endFill=0;exitX=0;exitY=0.25;exitDx=0;exitDy=0;exitPerimeter=0;" parent="1" source="4ab5WH4WgTMAdfrBrQQG-84" edge="1">
          <mxGeometry relative="1" as="geometry">
            <mxPoint x="567.0000000000001" y="142.5" as="sourcePoint" />
            <mxPoint x="540" y="138" as="targetPoint" />
          </mxGeometry>
        </mxCell>
        <mxCell id="4ab5WH4WgTMAdfrBrQQG-91" value="branch" style="edgeLabel;resizable=0;html=1;align=center;verticalAlign=middle;" parent="4ab5WH4WgTMAdfrBrQQG-90" connectable="0" vertex="1">
          <mxGeometry relative="1" as="geometry">
            <mxPoint x="-13" y="2" as="offset" />
          </mxGeometry>
        </mxCell>
        <mxCell id="4ab5WH4WgTMAdfrBrQQG-92" value="" style="group" parent="1" vertex="1" connectable="0">
          <mxGeometry x="500" y="160" width="57" height="30" as="geometry" />
        </mxCell>
        <mxCell id="4ab5WH4WgTMAdfrBrQQG-85" value="&lt;font style=&quot;font-size: 6px;&quot;&gt;NAND&lt;/font&gt;" style="shape=xor;whiteSpace=wrap;html=1;" parent="4ab5WH4WgTMAdfrBrQQG-92" vertex="1">
          <mxGeometry x="7" width="40" height="30" as="geometry" />
        </mxCell>
        <mxCell id="4ab5WH4WgTMAdfrBrQQG-86" value="" style="ellipse;whiteSpace=wrap;html=1;aspect=fixed;" parent="4ab5WH4WgTMAdfrBrQQG-92" vertex="1">
          <mxGeometry x="47" y="10" width="10" height="10" as="geometry" />
        </mxCell>
        <mxCell id="4ab5WH4WgTMAdfrBrQQG-89" value="" style="shape=requiredInterface;html=1;verticalLabelPosition=bottom;sketch=0;" parent="4ab5WH4WgTMAdfrBrQQG-92" vertex="1">
          <mxGeometry y="2.5" width="7" height="25" as="geometry" />
        </mxCell>
        <mxCell id="4ab5WH4WgTMAdfrBrQQG-93" value="" style="endArrow=none;html=1;rounded=0;endFill=0;exitX=0;exitY=0.25;exitDx=0;exitDy=0;exitPerimeter=0;" parent="1" edge="1">
          <mxGeometry relative="1" as="geometry">
            <mxPoint x="507" y="170" as="sourcePoint" />
            <mxPoint x="467" y="170" as="targetPoint" />
          </mxGeometry>
        </mxCell>
        <mxCell id="4ab5WH4WgTMAdfrBrQQG-94" value="CondZero" style="edgeLabel;resizable=0;html=1;align=center;verticalAlign=middle;" parent="4ab5WH4WgTMAdfrBrQQG-93" connectable="0" vertex="1">
          <mxGeometry relative="1" as="geometry">
            <mxPoint x="-13" y="2" as="offset" />
          </mxGeometry>
        </mxCell>
        <mxCell id="4ab5WH4WgTMAdfrBrQQG-95" value="" style="endArrow=none;html=1;rounded=0;endFill=0;exitX=0.595;exitY=0.442;exitDx=0;exitDy=0;exitPerimeter=0;entryX=0;entryY=0.25;entryDx=0;entryDy=0;fillColor=#60a917;strokeColor=#2D7600;" parent="1" source="4ab5WH4WgTMAdfrBrQQG-43" target="4ab5WH4WgTMAdfrBrQQG-54" edge="1">
          <mxGeometry relative="1" as="geometry">
            <mxPoint x="787" y="335" as="sourcePoint" />
            <mxPoint x="380" y="222.5" as="targetPoint" />
            <Array as="points">
              <mxPoint x="810" y="329" />
              <mxPoint x="810" y="226" />
              <mxPoint x="440" y="230" />
              <mxPoint x="110" y="230" />
            </Array>
          </mxGeometry>
        </mxCell>
        <mxCell id="4ab5WH4WgTMAdfrBrQQG-96" value="&lt;font color=&quot;#2d7600&quot;&gt;busy&lt;/font&gt;" style="edgeLabel;resizable=0;html=1;align=center;verticalAlign=middle;" parent="4ab5WH4WgTMAdfrBrQQG-95" connectable="0" vertex="1">
          <mxGeometry relative="1" as="geometry">
            <mxPoint x="315" y="96" as="offset" />
          </mxGeometry>
        </mxCell>
        <mxCell id="FB_3PsG7k7osnzkjA4A--1" value="" style="endArrow=none;html=1;rounded=0;endFill=0;entryX=0.51;entryY=0.187;entryDx=0;entryDy=0;entryPerimeter=0;" parent="1" target="4ab5WH4WgTMAdfrBrQQG-43" edge="1">
          <mxGeometry relative="1" as="geometry">
            <mxPoint x="780" y="240" as="sourcePoint" />
            <mxPoint x="776.29" y="299" as="targetPoint" />
            <Array as="points" />
          </mxGeometry>
        </mxCell>
        <mxCell id="FB_3PsG7k7osnzkjA4A--2" value="aluControl" style="edgeLabel;resizable=0;html=1;align=center;verticalAlign=middle;" parent="FB_3PsG7k7osnzkjA4A--1" connectable="0" vertex="1">
          <mxGeometry relative="1" as="geometry">
            <mxPoint x="-12" y="3" as="offset" />
          </mxGeometry>
        </mxCell>
      </root>
    </mxGraphModel>
  </diagram>
  <diagram id="XvjO1vlwUNJKG8o98DB7" name="Страница 2">
    <mxGraphModel dx="607" dy="330" grid="1" gridSize="10" guides="1" tooltips="1" connect="1" arrows="1" fold="1" page="1" pageScale="1" pageWidth="827" pageHeight="1169" math="0" shadow="0">
      <root>
        <mxCell id="0" />
        <mxCell id="1" parent="0" />
        <mxCell id="KNM2BN6YZ0mOtnaeKB_N-6" value="" style="endArrow=none;dashed=1;html=1;dashPattern=1 3;strokeWidth=2;rounded=0;entryX=0.5;entryY=1;entryDx=0;entryDy=0;exitX=0.75;exitY=1;exitDx=0;exitDy=0;" parent="1" target="NjRltsbanx_5NmLE2mSa-12" edge="1">
          <mxGeometry width="50" height="50" relative="1" as="geometry">
            <mxPoint x="483.5" y="530" as="sourcePoint" />
            <mxPoint x="450" y="380" as="targetPoint" />
            <Array as="points">
              <mxPoint x="420" y="565" />
            </Array>
          </mxGeometry>
        </mxCell>
        <mxCell id="MIbcWORCSJmfjpbRsqSZ-8" value="" style="endArrow=none;html=1;rounded=0;entryX=0.601;entryY=0.57;entryDx=0;entryDy=0;entryPerimeter=0;" parent="1" edge="1">
          <mxGeometry width="50" height="50" relative="1" as="geometry">
            <mxPoint x="554.93" y="585" as="sourcePoint" />
            <mxPoint x="579.6699999999997" y="583.8" as="targetPoint" />
          </mxGeometry>
        </mxCell>
        <mxCell id="RSl-r-9hBUWrPXRrh3wr-2" value="" style="verticalLabelPosition=bottom;verticalAlign=top;html=1;shape=mxgraph.basic.polygon;polyCoords=[[0.3,0.05],[0.77,0.24],[0.77,0.24],[0.76,0.73],[0.3,0.85],[0.3,0.55],[0.4,0.45],[0.3,0.35]];polyline=0;fontSize=9;" parent="1" vertex="1">
          <mxGeometry x="50" y="30" width="740" height="840" as="geometry" />
        </mxCell>
        <mxCell id="RSl-r-9hBUWrPXRrh3wr-3" value="&lt;font style=&quot;font-size: 35px;&quot;&gt;ALU&lt;/font&gt;" style="text;html=1;strokeColor=none;fillColor=none;align=center;verticalAlign=middle;whiteSpace=wrap;rounded=0;fontSize=10;" parent="1" vertex="1">
          <mxGeometry x="349" y="571.0000000000001" width="74" height="84" as="geometry" />
        </mxCell>
        <mxCell id="NjRltsbanx_5NmLE2mSa-1" value="" style="endArrow=none;html=1;rounded=0;endFill=0;" parent="1" edge="1">
          <mxGeometry relative="1" as="geometry">
            <mxPoint x="70" y="240" as="sourcePoint" />
            <mxPoint x="270" y="220" as="targetPoint" />
          </mxGeometry>
        </mxCell>
        <mxCell id="NjRltsbanx_5NmLE2mSa-2" value="rs1" style="edgeLabel;resizable=0;html=1;align=center;verticalAlign=middle;" parent="NjRltsbanx_5NmLE2mSa-1" connectable="0" vertex="1">
          <mxGeometry relative="1" as="geometry">
            <mxPoint as="offset" />
          </mxGeometry>
        </mxCell>
        <mxCell id="NjRltsbanx_5NmLE2mSa-3" value="" style="endArrow=none;html=1;rounded=0;endFill=0;entryX=0.298;entryY=0.701;entryDx=0;entryDy=0;entryPerimeter=0;" parent="1" target="RSl-r-9hBUWrPXRrh3wr-2" edge="1">
          <mxGeometry relative="1" as="geometry">
            <mxPoint x="80" y="640" as="sourcePoint" />
            <mxPoint x="300" y="635" as="targetPoint" />
          </mxGeometry>
        </mxCell>
        <mxCell id="NjRltsbanx_5NmLE2mSa-4" value="rs2" style="edgeLabel;resizable=0;html=1;align=center;verticalAlign=middle;" parent="NjRltsbanx_5NmLE2mSa-3" connectable="0" vertex="1">
          <mxGeometry relative="1" as="geometry">
            <mxPoint as="offset" />
          </mxGeometry>
        </mxCell>
        <mxCell id="NjRltsbanx_5NmLE2mSa-5" value="" style="endArrow=none;html=1;rounded=0;endFill=0;exitX=0.5;exitY=0;exitDx=0;exitDy=0;" parent="1" source="8IwFt4XJPRASOAX7WyjH-11" edge="1">
          <mxGeometry relative="1" as="geometry">
            <mxPoint x="650" y="424.63" as="sourcePoint" />
            <mxPoint x="760" y="424.63" as="targetPoint" />
          </mxGeometry>
        </mxCell>
        <mxCell id="NjRltsbanx_5NmLE2mSa-6" value="busy" style="edgeLabel;resizable=0;html=1;align=center;verticalAlign=middle;" parent="NjRltsbanx_5NmLE2mSa-5" connectable="0" vertex="1">
          <mxGeometry relative="1" as="geometry">
            <mxPoint as="offset" />
          </mxGeometry>
        </mxCell>
        <mxCell id="NjRltsbanx_5NmLE2mSa-10" value="" style="endArrow=none;html=1;rounded=0;endFill=0;exitX=0.77;exitY=0.309;exitDx=0;exitDy=0;exitPerimeter=0;" parent="1" source="RSl-r-9hBUWrPXRrh3wr-2" edge="1">
          <mxGeometry relative="1" as="geometry">
            <mxPoint x="650" y="320" as="sourcePoint" />
            <mxPoint x="765" y="320" as="targetPoint" />
          </mxGeometry>
        </mxCell>
        <mxCell id="NjRltsbanx_5NmLE2mSa-11" value="aluZero" style="edgeLabel;resizable=0;html=1;align=center;verticalAlign=middle;" parent="NjRltsbanx_5NmLE2mSa-10" connectable="0" vertex="1">
          <mxGeometry relative="1" as="geometry">
            <mxPoint as="offset" />
          </mxGeometry>
        </mxCell>
        <mxCell id="NjRltsbanx_5NmLE2mSa-13" value="" style="endArrow=none;dashed=1;html=1;dashPattern=1 3;strokeWidth=2;rounded=0;entryX=0.3;entryY=0.227;entryDx=0;entryDy=0;entryPerimeter=0;exitX=0;exitY=0.25;exitDx=0;exitDy=0;startArrow=classic;startFill=1;" parent="1" source="NjRltsbanx_5NmLE2mSa-12" target="RSl-r-9hBUWrPXRrh3wr-2" edge="1">
          <mxGeometry width="50" height="50" relative="1" as="geometry">
            <mxPoint x="420" y="380" as="sourcePoint" />
            <mxPoint x="470" y="330" as="targetPoint" />
            <Array as="points">
              <mxPoint x="400" y="370" />
              <mxPoint x="340" y="283" />
              <mxPoint x="340" y="241" />
            </Array>
          </mxGeometry>
        </mxCell>
        <mxCell id="NjRltsbanx_5NmLE2mSa-14" value="" style="endArrow=none;dashed=1;html=1;dashPattern=1 3;strokeWidth=2;rounded=0;exitX=0;exitY=0.75;exitDx=0;exitDy=0;entryX=0.3;entryY=0.702;entryDx=0;entryDy=0;entryPerimeter=0;endFill=0;startArrow=classic;startFill=1;" parent="1" source="NjRltsbanx_5NmLE2mSa-12" target="RSl-r-9hBUWrPXRrh3wr-2" edge="1">
          <mxGeometry width="50" height="50" relative="1" as="geometry">
            <mxPoint x="386" y="293" as="sourcePoint" />
            <mxPoint x="312" y="251" as="targetPoint" />
            <Array as="points">
              <mxPoint x="390" y="410" />
              <mxPoint x="390" y="530" />
              <mxPoint x="320" y="530" />
              <mxPoint x="320" y="640" />
            </Array>
          </mxGeometry>
        </mxCell>
        <mxCell id="NjRltsbanx_5NmLE2mSa-34" value="" style="endArrow=classic;html=1;rounded=0;endFill=1;entryX=0.5;entryY=0;entryDx=0;entryDy=0;" parent="1" target="lmt5l1gBnCVDJJjFZAbh-13" edge="1">
          <mxGeometry relative="1" as="geometry">
            <mxPoint x="580" y="150" as="sourcePoint" />
            <mxPoint x="435.1400000000001" y="182.7199999999999" as="targetPoint" />
            <Array as="points" />
          </mxGeometry>
        </mxCell>
        <mxCell id="NjRltsbanx_5NmLE2mSa-35" value="aluControl" style="edgeLabel;resizable=0;html=1;align=center;verticalAlign=middle;" parent="NjRltsbanx_5NmLE2mSa-34" connectable="0" vertex="1">
          <mxGeometry relative="1" as="geometry">
            <mxPoint x="20" y="-20" as="offset" />
          </mxGeometry>
        </mxCell>
        <mxCell id="MIbcWORCSJmfjpbRsqSZ-3" value="" style="endArrow=classic;html=1;rounded=0;endFill=1;entryX=0;entryY=0.5;entryDx=0;entryDy=0;exitX=0;exitY=0.5;exitDx=0;exitDy=0;" parent="1" target="8IwFt4XJPRASOAX7WyjH-4" edge="1" source="lmt5l1gBnCVDJJjFZAbh-13">
          <mxGeometry relative="1" as="geometry">
            <mxPoint x="520" y="300" as="sourcePoint" />
            <mxPoint x="483.5" y="470" as="targetPoint" />
            <Array as="points">
              <mxPoint x="300" y="110" />
              <mxPoint x="300" y="330" />
              <mxPoint x="420" y="480" />
              <mxPoint x="591" y="480" />
            </Array>
          </mxGeometry>
        </mxCell>
        <mxCell id="MIbcWORCSJmfjpbRsqSZ-6" value="" style="endArrow=none;html=1;rounded=0;exitX=0.207;exitY=1.065;exitDx=0;exitDy=0;exitPerimeter=0;" parent="1" edge="1" source="8IwFt4XJPRASOAX7WyjH-4">
          <mxGeometry width="50" height="50" relative="1" as="geometry">
            <mxPoint x="489.93" y="545" as="sourcePoint" />
            <mxPoint x="544.93" y="545" as="targetPoint" />
          </mxGeometry>
        </mxCell>
        <mxCell id="MIbcWORCSJmfjpbRsqSZ-7" value="" style="endArrow=none;html=1;rounded=0;" parent="1" edge="1">
          <mxGeometry width="50" height="50" relative="1" as="geometry">
            <mxPoint x="544.93" y="565" as="sourcePoint" />
            <mxPoint x="554.93" y="565" as="targetPoint" />
            <Array as="points">
              <mxPoint x="574.93" y="565" />
            </Array>
          </mxGeometry>
        </mxCell>
        <mxCell id="8IwFt4XJPRASOAX7WyjH-3" value="" style="group" vertex="1" connectable="0" parent="1">
          <mxGeometry x="534" y="230" width="80" height="40" as="geometry" />
        </mxCell>
        <mxCell id="8IwFt4XJPRASOAX7WyjH-1" value="prev_busy" style="rounded=0;whiteSpace=wrap;html=1;" vertex="1" parent="8IwFt4XJPRASOAX7WyjH-3">
          <mxGeometry width="80" height="40" as="geometry" />
        </mxCell>
        <mxCell id="8IwFt4XJPRASOAX7WyjH-2" value="" style="triangle;whiteSpace=wrap;html=1;direction=south;" vertex="1" parent="8IwFt4XJPRASOAX7WyjH-3">
          <mxGeometry x="5" width="70" height="10" as="geometry" />
        </mxCell>
        <mxCell id="8IwFt4XJPRASOAX7WyjH-4" value="000&lt;br&gt;001&lt;br&gt;010&lt;br&gt;&lt;br&gt;...&lt;br&gt;111" style="shape=trapezoid;perimeter=trapezoidPerimeter;whiteSpace=wrap;html=1;fixedSize=1;direction=south;" vertex="1" parent="1">
          <mxGeometry x="574.93" y="515" width="33" height="140" as="geometry" />
        </mxCell>
        <mxCell id="NjRltsbanx_5NmLE2mSa-32" value="" style="endArrow=none;html=1;rounded=0;endFill=0;entryX=0;entryY=0;entryDx=0;entryDy=0;" parent="1" target="NjRltsbanx_5NmLE2mSa-12" edge="1" source="RSl-r-9hBUWrPXRrh3wr-2">
          <mxGeometry relative="1" as="geometry">
            <mxPoint x="390" y="130" as="sourcePoint" />
            <mxPoint x="300" y="270" as="targetPoint" />
            <Array as="points">
              <mxPoint x="340" y="150" />
              <mxPoint x="360" y="270" />
            </Array>
          </mxGeometry>
        </mxCell>
        <mxCell id="NjRltsbanx_5NmLE2mSa-33" value="clk" style="edgeLabel;resizable=0;html=1;align=center;verticalAlign=middle;" parent="NjRltsbanx_5NmLE2mSa-32" connectable="0" vertex="1">
          <mxGeometry relative="1" as="geometry">
            <mxPoint x="-20" y="-100" as="offset" />
          </mxGeometry>
        </mxCell>
        <mxCell id="KNM2BN6YZ0mOtnaeKB_N-8" value="" style="endArrow=none;html=1;rounded=0;endFill=0;entryX=0.25;entryY=0;entryDx=0;entryDy=0;" parent="1" target="NjRltsbanx_5NmLE2mSa-12" edge="1" source="RSl-r-9hBUWrPXRrh3wr-2">
          <mxGeometry relative="1" as="geometry">
            <mxPoint x="390" y="120" as="sourcePoint" />
            <mxPoint x="411" y="270" as="targetPoint" />
            <Array as="points">
              <mxPoint x="400" y="250" />
            </Array>
          </mxGeometry>
        </mxCell>
        <mxCell id="KNM2BN6YZ0mOtnaeKB_N-9" value="rst" style="edgeLabel;resizable=0;html=1;align=center;verticalAlign=middle;" parent="KNM2BN6YZ0mOtnaeKB_N-8" connectable="0" vertex="1">
          <mxGeometry relative="1" as="geometry">
            <mxPoint x="-3" y="-75" as="offset" />
          </mxGeometry>
        </mxCell>
        <mxCell id="8IwFt4XJPRASOAX7WyjH-7" value="" style="endArrow=none;html=1;rounded=0;entryX=0.5;entryY=1;entryDx=0;entryDy=0;exitX=0.778;exitY=1.029;exitDx=0;exitDy=0;exitPerimeter=0;endFill=0;startArrow=classic;startFill=1;" edge="1" parent="1" source="8IwFt4XJPRASOAX7WyjH-4" target="KNM2BN6YZ0mOtnaeKB_N-7">
          <mxGeometry width="50" height="50" relative="1" as="geometry">
            <mxPoint x="510" y="440" as="sourcePoint" />
            <mxPoint x="560" y="390" as="targetPoint" />
            <Array as="points">
              <mxPoint x="470" y="624" />
            </Array>
          </mxGeometry>
        </mxCell>
        <mxCell id="8IwFt4XJPRASOAX7WyjH-9" value="" style="endArrow=none;html=1;rounded=0;entryX=1;entryY=0.75;entryDx=0;entryDy=0;exitX=0.25;exitY=1;exitDx=0;exitDy=0;endFill=0;startArrow=classic;startFill=1;" edge="1" parent="1" source="8IwFt4XJPRASOAX7WyjH-1" target="NjRltsbanx_5NmLE2mSa-12">
          <mxGeometry width="50" height="50" relative="1" as="geometry">
            <mxPoint x="500" y="470" as="sourcePoint" />
            <mxPoint x="550" y="420" as="targetPoint" />
          </mxGeometry>
        </mxCell>
        <mxCell id="8IwFt4XJPRASOAX7WyjH-11" value="0&lt;br&gt;1" style="shape=trapezoid;perimeter=trapezoidPerimeter;whiteSpace=wrap;html=1;fixedSize=1;direction=south;" vertex="1" parent="1">
          <mxGeometry x="586.43" y="400" width="21.5" height="50" as="geometry" />
        </mxCell>
        <mxCell id="lmt5l1gBnCVDJJjFZAbh-1" value="prev_b = 0 &amp;amp; aluControl = 111" style="shape=or;whiteSpace=wrap;html=1;rotation=90;" vertex="1" parent="1">
          <mxGeometry x="543.75" y="313.75" width="82.5" height="60" as="geometry" />
        </mxCell>
        <mxCell id="lmt5l1gBnCVDJJjFZAbh-3" value="" style="endArrow=none;html=1;rounded=0;entryX=0.75;entryY=1;entryDx=0;entryDy=0;exitX=0;exitY=0.25;exitDx=0;exitDy=0;exitPerimeter=0;endFill=0;startArrow=classic;startFill=1;" edge="1" parent="1" source="lmt5l1gBnCVDJJjFZAbh-1" target="8IwFt4XJPRASOAX7WyjH-1">
          <mxGeometry width="50" height="50" relative="1" as="geometry">
            <mxPoint x="605" y="310" as="sourcePoint" />
            <mxPoint x="550" y="360" as="targetPoint" />
          </mxGeometry>
        </mxCell>
        <mxCell id="lmt5l1gBnCVDJJjFZAbh-7" value="" style="endArrow=none;html=1;rounded=0;entryX=0;entryY=0.25;entryDx=0;entryDy=0;exitX=0;exitY=0.25;exitDx=0;exitDy=0;exitPerimeter=0;entryPerimeter=0;" edge="1" parent="1" source="lmt5l1gBnCVDJJjFZAbh-1" target="lmt5l1gBnCVDJJjFZAbh-1">
          <mxGeometry width="50" height="50" relative="1" as="geometry">
            <mxPoint x="608" y="315" as="sourcePoint" />
            <mxPoint x="607.2360679775361" y="319.47213595507196" as="targetPoint" />
          </mxGeometry>
        </mxCell>
        <mxCell id="lmt5l1gBnCVDJJjFZAbh-8" value="" style="endArrow=classic;html=1;rounded=0;entryX=0.354;entryY=1;entryDx=0;entryDy=0;entryPerimeter=0;exitX=1;exitY=0.75;exitDx=0;exitDy=0;endFill=1;" edge="1" parent="1" source="NjRltsbanx_5NmLE2mSa-12" target="8IwFt4XJPRASOAX7WyjH-11">
          <mxGeometry width="50" height="50" relative="1" as="geometry">
            <mxPoint x="500" y="300" as="sourcePoint" />
            <mxPoint x="550" y="250" as="targetPoint" />
            <Array as="points" />
          </mxGeometry>
        </mxCell>
        <mxCell id="lmt5l1gBnCVDJJjFZAbh-9" value="" style="endArrow=none;html=1;rounded=0;entryX=1;entryY=0.5;entryDx=0;entryDy=0;entryPerimeter=0;exitX=0;exitY=0.25;exitDx=0;exitDy=0;" edge="1" parent="1" source="8IwFt4XJPRASOAX7WyjH-11" target="lmt5l1gBnCVDJJjFZAbh-1">
          <mxGeometry width="50" height="50" relative="1" as="geometry">
            <mxPoint x="500" y="310" as="sourcePoint" />
            <mxPoint x="550" y="260" as="targetPoint" />
            <Array as="points" />
          </mxGeometry>
        </mxCell>
        <mxCell id="NjRltsbanx_5NmLE2mSa-8" value="" style="endArrow=none;html=1;rounded=0;endFill=0;exitX=0.7;exitY=0.575;exitDx=0;exitDy=0;exitPerimeter=0;" parent="1" edge="1">
          <mxGeometry relative="1" as="geometry">
            <mxPoint x="607.93" y="589.9999999999999" as="sourcePoint" />
            <mxPoint x="759.93" y="597" as="targetPoint" />
          </mxGeometry>
        </mxCell>
        <mxCell id="NjRltsbanx_5NmLE2mSa-9" value="result" style="edgeLabel;resizable=0;html=1;align=center;verticalAlign=middle;" parent="NjRltsbanx_5NmLE2mSa-8" connectable="0" vertex="1">
          <mxGeometry relative="1" as="geometry">
            <mxPoint as="offset" />
          </mxGeometry>
        </mxCell>
        <mxCell id="lmt5l1gBnCVDJJjFZAbh-10" value="" style="group" vertex="1" connectable="0" parent="1">
          <mxGeometry x="420" y="350" width="104" height="90" as="geometry" />
        </mxCell>
        <mxCell id="NjRltsbanx_5NmLE2mSa-12" value="AB function" style="rounded=0;whiteSpace=wrap;html=1;" parent="lmt5l1gBnCVDJJjFZAbh-10" vertex="1">
          <mxGeometry width="104" height="90" as="geometry" />
        </mxCell>
        <mxCell id="NjRltsbanx_5NmLE2mSa-15" value="a" style="text;html=1;strokeColor=none;fillColor=none;align=center;verticalAlign=middle;whiteSpace=wrap;rounded=0;" parent="lmt5l1gBnCVDJJjFZAbh-10" vertex="1">
          <mxGeometry y="10" width="20" height="20" as="geometry" />
        </mxCell>
        <mxCell id="NjRltsbanx_5NmLE2mSa-31" value="b" style="text;html=1;strokeColor=none;fillColor=none;align=center;verticalAlign=middle;whiteSpace=wrap;rounded=0;" parent="lmt5l1gBnCVDJJjFZAbh-10" vertex="1">
          <mxGeometry y="60" width="20" height="20" as="geometry" />
        </mxCell>
        <mxCell id="KNM2BN6YZ0mOtnaeKB_N-3" value="start" style="text;html=1;strokeColor=none;fillColor=none;align=center;verticalAlign=middle;whiteSpace=wrap;rounded=0;" parent="lmt5l1gBnCVDJJjFZAbh-10" vertex="1">
          <mxGeometry x="80" width="20" height="20" as="geometry" />
        </mxCell>
        <mxCell id="KNM2BN6YZ0mOtnaeKB_N-5" value="busy" style="text;html=1;strokeColor=none;fillColor=none;align=center;verticalAlign=middle;whiteSpace=wrap;rounded=0;" parent="lmt5l1gBnCVDJJjFZAbh-10" vertex="1">
          <mxGeometry x="80" y="60" width="20" height="10" as="geometry" />
        </mxCell>
        <mxCell id="KNM2BN6YZ0mOtnaeKB_N-7" value="y" style="text;html=1;strokeColor=none;fillColor=none;align=center;verticalAlign=middle;whiteSpace=wrap;rounded=0;" parent="lmt5l1gBnCVDJJjFZAbh-10" vertex="1">
          <mxGeometry x="20" y="60" width="60" height="30" as="geometry" />
        </mxCell>
        <mxCell id="lmt5l1gBnCVDJJjFZAbh-12" value="" style="endArrow=none;html=1;rounded=0;entryX=0;entryY=0.75;entryDx=0;entryDy=0;entryPerimeter=0;" edge="1" parent="1" source="lmt5l1gBnCVDJJjFZAbh-13" target="lmt5l1gBnCVDJJjFZAbh-1">
          <mxGeometry width="50" height="50" relative="1" as="geometry">
            <mxPoint x="520" y="300" as="sourcePoint" />
            <mxPoint x="560" y="330" as="targetPoint" />
            <Array as="points">
              <mxPoint x="520" y="220" />
              <mxPoint x="520" y="270" />
              <mxPoint x="540" y="290" />
            </Array>
          </mxGeometry>
        </mxCell>
        <mxCell id="lmt5l1gBnCVDJJjFZAbh-14" value="" style="endArrow=none;html=1;rounded=0;entryX=0;entryY=0.5;entryDx=0;entryDy=0;exitX=0;exitY=0.5;exitDx=0;exitDy=0;" edge="1" parent="1" source="lmt5l1gBnCVDJJjFZAbh-13" target="lmt5l1gBnCVDJJjFZAbh-13">
          <mxGeometry width="50" height="50" relative="1" as="geometry">
            <mxPoint x="520" y="300" as="sourcePoint" />
            <mxPoint x="593" y="315" as="targetPoint" />
            <Array as="points" />
          </mxGeometry>
        </mxCell>
        <mxCell id="lmt5l1gBnCVDJJjFZAbh-15" value="prev_busy = 1 &amp;amp; aluControl = 111" style="shape=or;whiteSpace=wrap;html=1;rotation=90;" vertex="1" parent="1">
          <mxGeometry x="414" y="210" width="90" height="60" as="geometry" />
        </mxCell>
        <mxCell id="lmt5l1gBnCVDJJjFZAbh-16" value="0&lt;br&gt;1" style="shape=trapezoid;perimeter=trapezoidPerimeter;whiteSpace=wrap;html=1;fixedSize=1;direction=south;" vertex="1" parent="1">
          <mxGeometry x="490" y="290" width="23" height="50" as="geometry" />
        </mxCell>
        <mxCell id="lmt5l1gBnCVDJJjFZAbh-17" value="" style="endArrow=classic;html=1;rounded=0;exitX=0.491;exitY=-0.03;exitDx=0;exitDy=0;exitPerimeter=0;entryX=1;entryY=0;entryDx=0;entryDy=0;endFill=1;" edge="1" parent="1" source="lmt5l1gBnCVDJJjFZAbh-16" target="KNM2BN6YZ0mOtnaeKB_N-3">
          <mxGeometry width="50" height="50" relative="1" as="geometry">
            <mxPoint x="500" y="280" as="sourcePoint" />
            <mxPoint x="550" y="230" as="targetPoint" />
            <Array as="points">
              <mxPoint x="520" y="320" />
            </Array>
          </mxGeometry>
        </mxCell>
        <mxCell id="lmt5l1gBnCVDJJjFZAbh-18" value="" style="endArrow=none;html=1;rounded=0;entryX=1;entryY=0.5;entryDx=0;entryDy=0;entryPerimeter=0;exitX=0;exitY=0.5;exitDx=0;exitDy=0;" edge="1" parent="1" source="lmt5l1gBnCVDJJjFZAbh-16" target="lmt5l1gBnCVDJJjFZAbh-15">
          <mxGeometry width="50" height="50" relative="1" as="geometry">
            <mxPoint x="500" y="280" as="sourcePoint" />
            <mxPoint x="550" y="230" as="targetPoint" />
            <Array as="points">
              <mxPoint x="490" y="290" />
            </Array>
          </mxGeometry>
        </mxCell>
        <mxCell id="lmt5l1gBnCVDJJjFZAbh-19" value="" style="endArrow=none;html=1;rounded=0;entryX=0.725;entryY=1;entryDx=0;entryDy=0;entryPerimeter=0;endFill=0;" edge="1" parent="1" target="8IwFt4XJPRASOAX7WyjH-11">
          <mxGeometry relative="1" as="geometry">
            <mxPoint x="570" y="440" as="sourcePoint" />
            <mxPoint x="610" y="420" as="targetPoint" />
          </mxGeometry>
        </mxCell>
        <mxCell id="lmt5l1gBnCVDJJjFZAbh-20" value="&amp;nbsp; 1" style="edgeLabel;resizable=0;html=1;align=center;verticalAlign=middle;" connectable="0" vertex="1" parent="lmt5l1gBnCVDJJjFZAbh-19">
          <mxGeometry relative="1" as="geometry">
            <mxPoint x="-4" y="2" as="offset" />
          </mxGeometry>
        </mxCell>
        <mxCell id="lmt5l1gBnCVDJJjFZAbh-21" value="" style="endArrow=none;html=1;rounded=0;entryX=0;entryY=0.75;entryDx=0;entryDy=0;exitX=0;exitY=0.25;exitDx=0;exitDy=0;exitPerimeter=0;endFill=0;startArrow=classic;startFill=1;" edge="1" parent="1" source="lmt5l1gBnCVDJJjFZAbh-15" target="8IwFt4XJPRASOAX7WyjH-2">
          <mxGeometry width="50" height="50" relative="1" as="geometry">
            <mxPoint x="530" y="270" as="sourcePoint" />
            <mxPoint x="580" y="220" as="targetPoint" />
            <Array as="points">
              <mxPoint x="490" y="190" />
              <mxPoint x="510" y="190" />
            </Array>
          </mxGeometry>
        </mxCell>
        <mxCell id="lmt5l1gBnCVDJJjFZAbh-13" value="" style="ellipse;whiteSpace=wrap;html=1;aspect=fixed;fillColor=#FFFFFF;" vertex="1" parent="1">
          <mxGeometry x="533.75" y="190" width="10" height="10" as="geometry" />
        </mxCell>
        <mxCell id="lmt5l1gBnCVDJJjFZAbh-26" value="" style="endArrow=none;html=1;rounded=0;entryX=0.725;entryY=1;entryDx=0;entryDy=0;entryPerimeter=0;endFill=0;" edge="1" parent="1">
          <mxGeometry relative="1" as="geometry">
            <mxPoint x="471" y="334" as="sourcePoint" />
            <mxPoint x="490" y="330" as="targetPoint" />
          </mxGeometry>
        </mxCell>
        <mxCell id="lmt5l1gBnCVDJJjFZAbh-27" value="&amp;nbsp; 0" style="edgeLabel;resizable=0;html=1;align=center;verticalAlign=middle;" connectable="0" vertex="1" parent="lmt5l1gBnCVDJJjFZAbh-26">
          <mxGeometry relative="1" as="geometry">
            <mxPoint x="-4" y="2" as="offset" />
          </mxGeometry>
        </mxCell>
        <mxCell id="lmt5l1gBnCVDJJjFZAbh-28" value="" style="endArrow=none;html=1;rounded=0;entryX=0.725;entryY=1;entryDx=0;entryDy=0;entryPerimeter=0;endFill=0;" edge="1" parent="1">
          <mxGeometry relative="1" as="geometry">
            <mxPoint x="471" y="313.75" as="sourcePoint" />
            <mxPoint x="490" y="309.75" as="targetPoint" />
          </mxGeometry>
        </mxCell>
        <mxCell id="lmt5l1gBnCVDJJjFZAbh-29" value="aluControl == 111" style="edgeLabel;resizable=0;html=1;align=center;verticalAlign=middle;" connectable="0" vertex="1" parent="lmt5l1gBnCVDJJjFZAbh-28">
          <mxGeometry relative="1" as="geometry">
            <mxPoint x="-37" y="2" as="offset" />
          </mxGeometry>
        </mxCell>
        <mxCell id="lmt5l1gBnCVDJJjFZAbh-30" value="" style="endArrow=none;html=1;rounded=0;exitX=0;exitY=0.75;exitDx=0;exitDy=0;exitPerimeter=0;endFill=0;startArrow=classic;startFill=1;" edge="1" parent="1" source="lmt5l1gBnCVDJJjFZAbh-15">
          <mxGeometry width="50" height="50" relative="1" as="geometry">
            <mxPoint x="600" y="270" as="sourcePoint" />
            <mxPoint x="470" y="170" as="targetPoint" />
          </mxGeometry>
        </mxCell>
      </root>
    </mxGraphModel>
  </diagram>
</mxfile>
